<?xml version="1.0" encoding="UTF-8"?>
<svg id="Layer_1" xmlns="http://www.w3.org/2000/svg" version="1.1" viewBox="0 0 1440 440">
  <!-- Generator: Adobe Illustrator 29.5.1, SVG Export Plug-In . SVG Version: 2.1.0 Build 141)  -->
  <defs>
    <style>
      .st0 {
        fill: #d4af2a;
      }

      .st1 {
        fill: #e73c31;
      }

      .st2 {
        fill: #4193f3;
      }
    </style>
  </defs>
  <path class="st1" d="M1086.81,229.87c-4.87-11.31,4.32-23.66,16.56-22.23l383.09,44.87c12.23,1.43,18.33,15.57,10.97,25.45l-230.41,309.33c-7.36,9.88-22.65,8.09-27.52-3.22l-152.69-354.21Z"/>
  <circle class="st2" cx="961.12" cy="460.13" r="59.15"/>
  <circle class="st2" cx="1381" cy="186.24" r="33.17"/>
  <circle class="st1" cx="879.29" cy="226.1" r="34.68"/>
  <circle class="st1" cx="855.7" cy="291.33" r="34.68"/>
  <circle class="st1" cx="832.12" cy="356.57" r="34.68"/>
  <circle class="st1" cx="808.53" cy="421.8" r="34.68"/>
  <path class="st1" d="M90.99,90.68c-119.01,0-215.5,96.48-215.5,215.5s96.49,215.51,215.5,215.51,215.51-96.49,215.51-215.51S210.01,90.68,90.99,90.68ZM90.99,422.16c-64.05,0-115.98-51.92-115.98-115.98s51.93-115.97,115.98-115.97,115.98,51.92,115.98,115.97-51.92,115.98-115.98,115.98Z"/>
  <path class="st0" d="M720.89,539.83c-91.13,83.85-232.99,82.61-322.62-4.95l-.02-.02c-89.62-87.56-94.19-229.34-12.52-322.4,6.16-4.14,14.58-3.55,20.1,1.84l312.73,305.51c5.51,5.39,6.31,13.77,2.33,20.02Z"/>
  <g id="mask0_2818_277">
    <path class="st0" d="M720.89,539.83c-91.13,83.85-232.99,82.61-322.62-4.95l-.02-.02c-89.62-87.56-94.19-229.34-12.52-322.4,6.16-4.14,14.58-3.55,20.1,1.84l312.73,305.51c5.51,5.39,6.31,13.77,2.33,20.02Z"/>
  </g>
  <path class="st2" d="M576.08,119.35c.61-7.4,10.1-10.05,14.45-4.03l34.63,47.84c1.37,1.89,3.5,3.09,5.82,3.28l58.86,4.85c7.4.61,10.05,10.1,4.03,14.45l-47.84,34.63c-1.89,1.37-3.09,3.5-3.28,5.82l-4.85,58.86c-.61,7.4-10.1,10.05-14.45,4.03l-34.63-47.84c-1.37-1.89-3.5-3.09-5.82-3.28l-58.86-4.85c-7.4-.61-10.05-10.1-4.03-14.45l47.84-34.63c1.89-1.37,3.09-3.5,3.28-5.82l4.85-58.86Z"/>
  <path class="st0" d="M1025.17,45.04c3.78-4.45,10.9-3.48,13.35,1.82l11.29,24.37c1.41,3.04,4.56,4.88,7.9,4.61l26.77-2.17c5.82-.47,10.17,5.25,8.16,10.73l-9.25,25.21c-1.15,3.15-.22,6.68,2.33,8.85l20.46,17.39c4.45,3.78,3.49,10.9-1.81,13.36l-24.37,11.29c-3.04,1.41-4.88,4.57-4.61,7.91l2.17,26.76c.48,5.82-5.24,10.17-10.72,8.16l-25.21-9.25c-3.15-1.15-6.68-.22-8.86,2.33l-17.38,20.46c-3.79,4.45-10.9,3.48-13.36-1.82l-11.29-24.37c-1.41-3.04-4.57-4.88-7.91-4.61l-26.77,2.17c-5.82.47-10.17-5.25-8.16-10.73l9.25-25.21c1.15-3.15.22-6.68-2.33-8.85l-20.46-17.39c-4.45-3.78-3.48-10.9,1.82-13.35l24.36-11.29c3.04-1.41,4.88-4.57,4.61-7.91l-2.17-26.77c-.47-5.82,5.25-10.17,10.73-8.16l25.21,9.25c3.15,1.15,6.68.22,8.86-2.33l17.39-20.46Z"/>
</svg>