<?xml version="1.0" encoding="UTF-8"?>
<svg id="Layer_1" data-name="Layer 1" xmlns="http://www.w3.org/2000/svg" viewBox="0 0 1128.21 1013.43">
  <defs>
    <style>
      .cls-1 {
        fill: #d4af2a;
      }

      .cls-2 {
        fill: #e73c31;
      }

      .cls-3 {
        fill: #4193f3;
      }
    </style>
  </defs>
  <path class="cls-1" d="M266.46,831.72l-340.67,165.6c-7.15,3.47-15.62,1.14-20.05-5.15-88.31-197.51-7.86-430.12,183.59-530.87,7.37-2.19,15.45,1.22,18.93,8.35l165.6,340.68c3.86,7.95.55,17.52-7.4,21.39Z"/>
  <g id="mask1_2801_260" data-name="mask1 2801 260">
    <path class="cls-1" d="M266.46,831.72l-340.67,165.6c-7.15,3.47-15.62,1.14-20.05-5.15-88.31-197.51-7.86-430.12,183.59-530.87,7.37-2.19,15.45,1.22,18.93,8.35l165.6,340.68c3.86,7.95.55,17.52-7.4,21.39Z"/>
  </g>
  <path class="cls-2" d="M999.32,5.61c-5.58-10.98,2.81-23.88,15.11-23.23l265.35,14.1c12.3.65,19.27,14.38,12.56,24.7l-144.89,222.74c-6.71,10.32-22.09,9.51-27.67-1.47L999.32,5.61Z"/>
  <circle class="cls-2" cx="407.87" cy="674.38" r="34.68"/>
  <circle class="cls-2" cx="380.79" cy="738.24" r="34.68"/>
  <circle class="cls-2" cx="353.71" cy="802.1" r="34.68"/>
  <circle class="cls-2" cx="326.63" cy="865.96" r="34.68"/>
  <circle class="cls-1" cx="1118.76" cy="427.17" r="65.58"/>
  <path class="cls-3" d="M518.41-8.5c3.28-6.66,13.08-5.66,14.93,1.54l21.85,84.88c.58,2.26,2.12,4.16,4.22,5.19l78.66,38.67c6.67,3.28,5.66,13.08-1.53,14.93l-84.88,21.85c-2.26.58-4.16,2.12-5.19,4.22l-38.66,78.66c-3.28,6.66-13.08,5.66-14.93-1.54l-21.85-84.88c-.58-2.26-2.12-4.15-4.22-5.19l-78.66-38.67c-6.67-3.28-5.66-13.08,1.53-14.93l84.88-21.85c2.26-.58,4.16-2.12,5.19-4.22l38.66-78.66Z"/>
  <path class="cls-2" d="M-166.71-261.34c-215.55,0-390.29,174.73-390.29,390.28s174.74,390.28,390.29,390.28S223.57,344.49,223.57,128.94,48.83-261.34-166.71-261.34ZM-166.71,338.98c-116.01,0-210.05-94.04-210.05-210.04s94.04-210.04,210.05-210.04S43.33,12.94,43.33,128.94s-94.04,210.04-210.04,210.04Z"/>
  <path class="cls-3" d="M1235.83,540.39c9.05-1.38,17.38,5.11,18.34,14.22,19.65,187.59-111.56,359.33-299.98,387.99-188.42,28.66-364.75-96.31-401.76-281.26-1.8-8.98,4.23-17.65,13.28-19.03l670.12-101.92Z"/>
</svg>