<?xml version="1.0" encoding="UTF-8"?>
<svg id="Layer_1" xmlns="http://www.w3.org/2000/svg" version="1.1" viewBox="0 0 390 785">
  <!-- Generator: Adobe Illustrator 29.5.1, SVG Export Plug-In . SVG Version: 2.1.0 Build 141)  -->
  <defs>
    <style>
      .st0 {
        fill: #d4af2a;
      }

      .st1 {
        fill: #e73c31;
      }

      .st2 {
        fill: #4193f3;
      }
    </style>
  </defs>
  <path class="st0" d="M151.86,64.56L-26.21,151.12c-7.95,3.87-17.52.56-21.39-7.39L-134.16-34.35c-3.36-6.92-1.29-15.08,4.56-19.62,107.93-45.41,233.14-2.12,289.98,100.26h0c1.82,7.19-1.59,14.9-8.52,18.27Z"/>
  <g id="mask1_2929_434">
    <path class="st0" d="M151.86,64.56L-26.21,151.12c-7.95,3.87-17.52.56-21.39-7.39L-134.16-34.35c-3.36-6.92-1.29-15.08,4.56-19.62,107.93-45.41,233.14-2.12,289.98,100.26h0c1.82,7.19-1.59,14.9-8.52,18.27Z"/>
  </g>
  <path class="st1" d="M407.12,565.93c10.98-5.58,23.88,2.81,23.23,15.11l-6.6,124.21c-.65,12.3-14.38,19.28-24.7,12.56l-104.26-67.82c-10.32-6.72-9.51-22.09,1.47-27.67l110.86-56.39Z"/>
  <circle class="st1" cx="43.57" cy="229.24" r="19.42" transform="translate(-185.92 271.48) rotate(-89.67)"/>
  <circle class="st1" cx="7.81" cy="214.08" r="19.42" transform="translate(-206.3 220.65) rotate(-89.67)"/>
  <circle class="st0" cx="181.97" cy="627.27" r="36.72"/>
  <path class="st2" d="M417.36,286.94c6.66,3.28,5.66,13.08-1.54,14.93l-36.74,9.46c-2.26.58-4.15,2.12-5.18,4.22l-16.74,34.05c-3.28,6.66-13.08,5.66-14.93-1.54l-9.46-36.74c-.58-2.26-2.12-4.15-4.22-5.19l-34.05-16.74c-6.66-3.28-5.66-13.08,1.54-14.93l36.74-9.46c2.26-.58,4.16-2.12,5.19-4.22l16.74-34.05c3.28-6.66,13.08-5.66,14.93,1.54l9.46,36.74c.58,2.26,2.12,4.16,4.22,5.19l34.05,16.74Z"/>
  <path class="st1" d="M348.95-311c-120.68,0-218.51,97.84-218.51,218.52s97.83,218.52,218.51,218.52,218.5-97.83,218.5-218.52-97.83-218.52-218.5-218.52ZM348.95,25.13c-64.95,0-117.6-52.66-117.6-117.61s52.65-117.6,117.6-117.6,117.59,52.65,117.59,117.6-52.65,117.61-117.59,117.61Z"/>
  <path class="st2" d="M121.34,700.08c.78,5.14-2.9,9.86-8.07,10.41-106.48,11.15-203.95-63.32-220.22-170.27-16.27-106.95,54.67-207.03,159.64-228.04,5.1-1.02,10.02,2.4,10.8,7.54l57.85,380.36h0Z"/>
</svg>