<svg width="178" height="178" viewBox="0 0 178 178" fill="none" xmlns="http://www.w3.org/2000/svg">
<path d="M68.9055 4.89602C71.2714 -0.441959 78.3736 -1.5293 82.2282 2.85632L99.9559 23.0262C102.169 25.544 105.717 26.4152 108.844 25.2086L133.898 15.5434C139.345 13.4418 145.136 17.6949 144.761 23.5217L143.034 50.3193C142.818 53.6644 144.711 56.7892 147.776 58.1475L172.325 69.0286C177.663 71.3945 178.751 78.4967 174.365 82.3513L154.195 100.079C151.677 102.292 150.806 105.84 152.013 108.967L161.678 134.021C163.78 139.468 159.526 145.259 153.7 144.884L126.902 143.157C123.557 142.941 120.432 144.834 119.074 147.899L108.193 172.448C105.827 177.786 98.7247 178.874 94.8701 174.488L77.1424 154.318C74.9294 151.801 71.3815 150.929 68.254 152.136L43.2006 161.801C37.7531 163.903 31.9622 159.65 32.3377 153.823L34.0646 127.025C34.2801 123.68 32.3873 120.555 29.3228 119.197L4.77292 108.316C-0.565061 105.95 -1.6524 98.8478 2.73321 94.9932L22.9031 77.2655C25.4209 75.0525 26.2921 71.5046 25.0855 68.3771L15.4203 43.3237C13.3187 37.8762 17.5718 32.0853 23.3986 32.4608L50.1962 34.1877C53.5413 34.4032 56.6661 32.5104 58.0244 29.4459L68.9055 4.89602Z" fill="#D4AF2A"/>
</svg>
