<svg xmlns="http://www.w3.org/2000/svg" version="1.1" xmlns:xlink="http://www.w3.org/1999/xlink" width="92.29" height="92.29"><svg id="SvgjsSvg1197" data-name="Layer 1" xmlns="http://www.w3.org/2000/svg" viewBox="0 0 92.29 92.29">
  <defs>
    <style>
      .cls-1 {
        fill: #d4af2a;
      }
    </style>
  </defs>
  <path class="cls-1" d="M36.11,16.72l7.33-15.03c1.1-2.25,4.31-2.25,5.4,0l7.33,15.03c.67,1.37,2.25,2.02,3.68,1.52l15.81-5.45c2.37-.82,4.64,1.45,3.82,3.82l-5.45,15.81c-.49,1.44.16,3.02,1.52,3.68l15.03,7.33c2.25,1.1,2.25,4.31,0,5.4l-15.03,7.33c-1.37.67-2.02,2.25-1.52,3.68l5.45,15.81c.82,2.37-1.45,4.64-3.82,3.82l-15.81-5.45c-1.44-.49-3.02.16-3.68,1.52l-7.33,15.03c-1.1,2.25-4.31,2.25-5.4,0l-7.33-15.03c-.67-1.37-2.25-2.02-3.68-1.52l-15.81,5.45c-2.37.82-4.64-1.45-3.82-3.82l5.45-15.81c.49-1.44-.16-3.02-1.52-3.68l-15.03-7.33c-2.25-1.1-2.25-4.31,0-5.4l15.03-7.33c1.37-.67,2.02-2.25,1.52-3.68l-5.45-15.81c-.82-2.37,1.45-4.64,3.82-3.82l15.81,5.45c1.44.49,3.02-.16,3.68-1.52Z"></path>
</svg><style>@media (prefers-color-scheme: light) { :root { filter: none; } }
@media (prefers-color-scheme: dark) { :root { filter: none; } }
</style></svg>