<svg width="1440" height="440" viewBox="0 0 1440 440" fill="none" xmlns="http://www.w3.org/2000/svg">
<path d="M1086.81 229.873C1081.94 218.563 1091.13 206.215 1103.37 207.648L1486.46 252.521C1498.69 253.954 1504.79 268.093 1497.43 277.97L1267.02 587.304C1259.66 597.181 1244.37 595.39 1239.5 584.08L1086.81 229.873Z" fill="#E73C31"/>
<circle cx="961.125" cy="460.126" r="59.1501" fill="#4193F3"/>
<circle cx="1381" cy="186.242" r="33.1731" fill="#4193F3"/>
<circle cx="879.29" cy="226.1" r="34.6831" transform="rotate(19.8787 879.29 226.1)" fill="#E73C31"/>
<circle cx="855.703" cy="291.333" r="34.6831" transform="rotate(19.8787 855.703 291.333)" fill="#E73C31"/>
<circle cx="832.117" cy="356.566" r="34.6831" transform="rotate(19.8787 832.117 356.566)" fill="#E73C31"/>
<circle cx="808.53" cy="421.799" r="34.6831" transform="rotate(19.8787 808.53 421.799)" fill="#E73C31"/>
<path d="M306.497 306.184C306.497 425.203 210.013 521.687 90.9943 521.687C-28.0247 521.687 -124.509 425.203 -124.509 306.184C-124.509 187.165 -28.0247 90.6812 90.9943 90.6812C210.013 90.6812 306.497 187.165 306.497 306.184Z" fill="#E73C31"/>
<path d="M206.974 306.184C206.974 370.238 155.048 422.164 90.9943 422.164C26.9406 422.164 -24.9853 370.238 -24.9853 306.184C-24.9853 242.13 26.9406 190.205 90.9943 190.205C155.048 190.205 206.974 242.13 206.974 306.184Z" fill="#F9F7F2"/>
<mask id="mask0_2818_277" style="mask-type:alpha" maskUnits="userSpaceOnUse" x="327" y="132" width="470" height="470">
<path d="M398.256 534.867C305.578 444.327 303.844 295.8 394.384 203.122C484.923 110.444 633.451 108.71 726.129 199.25C818.807 289.789 820.54 438.316 730.001 530.994C639.461 623.673 490.934 625.406 398.256 534.867Z" fill="#E73C31"/>
</mask>
<g mask="url(#mask0_2818_277)">
<rect x="730.001" y="530.995" width="234.595" height="469.19" rx="16" transform="rotate(134.331 730.001 530.995)" fill="#D4AF2A"/>
</g>
<path d="M576.076 119.345C576.685 111.944 586.174 109.295 590.529 115.311L625.162 163.152C626.531 165.043 628.658 166.242 630.985 166.434L689.847 171.284C697.248 171.894 699.897 181.383 693.881 185.738L646.04 220.371C644.149 221.74 642.95 223.867 642.758 226.194L637.908 285.056C637.298 292.457 627.809 295.106 623.454 289.09L588.821 241.249C587.452 239.358 585.325 238.159 582.998 237.967L524.136 233.117C516.735 232.507 514.086 223.018 520.102 218.663L567.943 184.03C569.835 182.661 571.033 180.534 571.225 178.207L576.076 119.345Z" fill="#4193F3"/>
<path d="M1025.17 45.041C1028.95 40.5917 1036.07 41.5605 1038.52 46.8584L1049.81 71.2235C1051.22 74.265 1054.37 76.1054 1057.71 75.8341L1084.48 73.6609C1090.3 73.1883 1094.65 78.9075 1092.64 84.3893L1083.39 109.6C1082.24 112.747 1083.17 116.28 1085.72 118.451L1106.18 135.84C1110.63 139.621 1109.67 146.74 1104.37 149.195L1080 160.484C1076.96 161.893 1075.12 165.049 1075.39 168.39L1077.56 195.155C1078.04 200.975 1072.32 205.324 1066.84 203.313L1041.63 194.067C1038.48 192.913 1034.95 193.843 1032.77 196.397L1015.39 216.86C1011.6 221.309 1004.49 220.34 1002.03 215.042L990.742 190.677C989.333 187.636 986.177 185.795 982.836 186.067L956.071 188.24C950.251 188.712 945.902 182.993 947.912 177.511L957.159 152.3C958.313 149.153 957.383 145.62 954.828 143.45L934.366 126.06C929.917 122.28 930.886 115.16 936.183 112.706L960.548 101.417C963.59 100.008 965.43 96.8518 965.159 93.5107L962.986 66.7456C962.513 60.926 968.233 56.5769 973.714 58.5874L998.925 67.8338C1002.07 68.988 1005.61 68.0578 1007.78 65.5035L1025.17 45.041Z" fill="#D4AF2A"/>
</svg>
