<svg width="1440" height="1374" viewBox="0 0 1440 1374" fill="none" xmlns="http://www.w3.org/2000/svg">
<mask id="mask0_2801_260" style="mask-type:alpha" maskUnits="userSpaceOnUse" x="751" y="231" width="718" height="718">
<path d="M1164.1 944.438C968.353 974.201 785.539 839.64 755.776 643.889C726.014 448.138 860.575 265.324 1056.33 235.562C1252.08 205.799 1434.89 340.36 1464.65 536.111C1494.42 731.862 1359.86 914.676 1164.1 944.438Z" fill="#E73C31"/>
</mask>
<g mask="url(#mask0_2801_260)">
<rect x="1464.65" y="536.111" width="358.512" height="717.023" rx="16" transform="rotate(81.3549 1464.65 536.111)" fill="#4193F3"/>
</g>
<mask id="mask1_2801_260" style="mask-type:alpha" maskUnits="userSpaceOnUse" x="75" y="413" width="823" height="823">
<path d="M307.154 455.257C511.2 356.072 757.017 441.078 856.203 645.124C955.388 849.17 870.382 1094.99 666.336 1194.17C462.29 1293.36 216.472 1208.35 117.287 1004.31C18.1015 800.26 103.108 554.442 307.154 455.257Z" fill="#D4AF2A"/>
</mask>
<g mask="url(#mask1_2801_260)">
<rect x="117.287" y="1004.31" width="410.794" height="410.792" rx="16" transform="rotate(-115.924 117.287 1004.31)" fill="#D4AF2A"/>
</g>
<path d="M-18.1363 585.931C-15.9576 580.171 -8.3604 578.93 -4.46133 583.697L62.3697 665.402C66.2688 670.169 63.5454 677.369 57.4676 678.362L-46.7068 695.387C-52.7846 696.38 -57.6585 690.422 -55.4798 684.662L-18.1363 585.931Z" fill="#4193F3"/>
<path d="M1205.21 5.61406C1199.63 -5.36443 1208.02 -18.2704 1220.32 -17.6167L1485.67 -3.51362C1497.97 -2.85988 1504.94 10.8632 1498.23 21.188L1353.34 243.932C1346.63 254.256 1331.25 253.439 1325.67 242.461L1205.21 5.61406Z" fill="#E73C31"/>
<circle cx="613.761" cy="674.378" r="34.6831" transform="rotate(22.9794 613.761 674.378)" fill="#E73C31"/>
<circle cx="586.68" cy="738.24" r="34.6831" transform="rotate(22.9794 586.68 738.24)" fill="#E73C31"/>
<circle cx="559.6" cy="802.101" r="34.6831" transform="rotate(22.9794 559.6 802.101)" fill="#E73C31"/>
<circle cx="532.519" cy="865.963" r="34.6831" transform="rotate(22.9794 532.519 865.963)" fill="#E73C31"/>
<circle cx="1324.65" cy="427.172" r="65.578" fill="#D4AF2A"/>
<path d="M724.308 -8.49611C727.585 -15.1608 737.384 -14.153 739.235 -6.96098L761.083 77.9181C761.665 80.1793 763.206 82.0734 765.301 83.1034L843.957 121.769C850.622 125.045 849.614 134.845 842.422 136.696L757.543 158.544C755.282 159.126 753.388 160.666 752.357 162.762L713.692 241.418C710.415 248.082 700.616 247.075 698.765 239.883L676.917 155.003C676.335 152.742 674.794 150.848 672.699 149.818L594.043 111.152C587.378 107.876 588.386 98.0767 595.578 96.2255L680.457 74.3779C682.719 73.7959 684.613 72.2551 685.643 70.1597L724.308 -8.49611Z" fill="#4193F3"/>
<path d="M429.457 128.94C429.457 344.487 254.722 519.222 39.1755 519.222C-176.371 519.222 -351.106 344.487 -351.106 128.94C-351.106 -86.6061 -176.371 -261.341 39.1755 -261.341C254.722 -261.341 429.457 -86.6061 429.457 128.94Z" fill="#E73C31"/>
<path d="M249.217 128.94C249.217 244.943 155.178 338.982 39.1755 338.982C-76.8274 338.982 -170.866 244.943 -170.866 128.94C-170.866 12.9375 -76.8274 -81.1015 39.1755 -81.1015C155.178 -81.1015 249.217 12.9375 249.217 128.94Z" fill="#F9F7F2"/>
</svg>
