<svg width="1440" height="369" viewBox="0 0 1440 369" fill="none" xmlns="http://www.w3.org/2000/svg">
<path d="M989.223 -19.5459C992.791 -24.566 1000.45 -23.842 1003.02 -18.2427L1050.32 85.0481C1052.88 90.6474 1048.42 96.9225 1042.29 96.3433L929.189 85.6588C923.058 85.0796 919.853 78.0805 923.42 73.0604L989.223 -19.5459Z" fill="#D4AF2A"/>
<path d="M523.656 31.3761C524.093 25.2332 531.015 21.8669 536.117 25.3168L558.851 40.6905C563.952 44.1404 563.406 51.819 557.868 54.512L533.187 66.5133C527.648 69.2063 521.272 64.894 521.708 58.7511L523.656 31.3761Z" fill="#4193F3"/>
<path d="M1191.36 -56.9781C1185.77 -67.9566 1194.17 -80.8626 1206.47 -80.2088L1471.81 -66.1058C1484.11 -65.452 1491.09 -51.7289 1484.38 -41.4041L1339.49 181.34C1332.77 191.664 1317.4 190.847 1311.82 179.869L1191.36 -56.9781Z" fill="#E73C31"/>
<mask id="mask0_2830_763" style="mask-type:alpha" maskUnits="userSpaceOnUse" x="-108" y="-83" width="257" height="258">
<path d="M111.574 -44.6223C161.576 5.53379 161.451 86.7278 111.295 136.73C61.1387 186.732 -20.0553 186.607 -70.0571 136.45C-120.059 86.2944 -119.934 5.10038 -69.7779 -44.9015C-19.6219 -94.9033 61.5721 -94.7783 111.574 -44.6223Z" fill="#4193F3"/>
</mask>
<g mask="url(#mask0_2830_763)">
<rect x="-69.7778" y="-44.9013" width="128.235" height="256.471" rx="16" transform="rotate(-44.9118 -69.7778 -44.9013)" fill="#4193F3"/>
</g>
<circle cx="1138.7" cy="154.077" r="34.6831" transform="rotate(-37.361 1138.7 154.077)" fill="#E73C31"/>
<circle cx="1180.8" cy="209.212" r="34.6831" transform="rotate(-37.361 1180.8 209.212)" fill="#E73C31"/>
<circle cx="1222.89" cy="264.346" r="34.6831" transform="rotate(-37.361 1222.89 264.346)" fill="#E73C31"/>
<circle cx="1264.99" cy="319.48" r="34.6831" transform="rotate(-37.361 1264.99 319.48)" fill="#E73C31"/>
<circle cx="99.5339" cy="242.344" r="78.7755" fill="#E73C31"/>
<path d="M303.967 -123.148C305.63 -130.386 315.399 -131.649 318.849 -125.073L359.556 -47.4537C360.641 -45.386 362.574 -43.8952 364.85 -43.3724L450.271 -23.7498C457.509 -22.0871 458.772 -12.3174 452.195 -8.86809L374.576 31.8394C372.509 32.9239 371.018 34.8575 370.495 37.1331L350.873 122.554C349.21 129.792 339.44 131.055 335.991 124.479L295.283 46.8598C294.199 44.792 292.265 43.3012 289.99 42.7785L204.569 23.1558C197.331 21.4932 196.067 11.7234 202.644 8.27416L280.263 -32.4334C282.331 -33.5178 283.822 -35.4515 284.344 -37.727L303.967 -123.148Z" fill="#D4AF2A"/>
<path d="M1811.64 -19.6841C1811.64 145.289 1677.91 279.026 1512.93 279.026C1347.96 279.026 1214.22 145.289 1214.22 -19.6841C1214.22 -184.657 1347.96 -318.394 1512.93 -318.394C1677.91 -318.394 1811.64 -184.657 1811.64 -19.6841Z" fill="#4193F3"/>
<path d="M1673.69 -19.6842C1673.69 69.1011 1601.72 141.076 1512.93 141.076C1424.15 141.076 1352.17 69.1011 1352.17 -19.6842C1352.17 -108.469 1424.15 -180.444 1512.93 -180.444C1601.72 -180.444 1673.69 -108.469 1673.69 -19.6842Z" fill="#F9F7F2"/>
</svg>
