<?xml version="1.0" encoding="UTF-8"?>
<svg id="Layer_1" xmlns="http://www.w3.org/2000/svg" version="1.1" viewBox="0 0 1440 369">
  <!-- Generator: Adobe Illustrator 29.5.1, SVG Export Plug-In . SVG Version: 2.1.0 Build 141)  -->
  <defs>
    <style>
      .st0 {
        fill: #d4af2a;
      }

      .st1 {
        fill: #e73c31;
      }

      .st2 {
        fill: #4193f3;
      }
    </style>
  </defs>
  <path class="st0" d="M989.22-19.55c3.57-5.02,11.23-4.3,13.8,1.3l47.3,103.29c2.56,5.6-1.9,11.87-8.03,11.3l-113.1-10.68c-6.13-.58-9.34-7.58-5.77-12.6l65.8-92.61Z"/>
  <path class="st2" d="M523.66,31.38c.44-6.14,7.36-9.51,12.46-6.06l22.73,15.37c5.1,3.45,4.55,11.13-.98,13.82l-24.68,12c-5.54,2.69-11.92-1.62-11.48-7.76l1.95-27.37Z"/>
  <path class="st2" d="M119.27,128c-6.12,3.5-14.05,2.63-19.27-2.6L-58.48-33.57c-5.22-5.24-6.06-13.19-2.53-19.3,50.44-41.86,125.4-39.08,172.58,8.25,47.19,47.33,49.74,122.31,7.7,172.62Z"/>
  <g id="mask0_2830_763">
    <path class="st2" d="M119.27,128c-6.12,3.5-14.05,2.63-19.27-2.6L-58.48-33.57c-5.22-5.24-6.06-13.19-2.53-19.3,50.44-41.86,125.4-39.08,172.58,8.25,47.19,47.33,49.74,122.31,7.7,172.62Z"/>
  </g>
  <circle class="st1" cx="1138.7" cy="154.08" r="34.68"/>
  <circle class="st1" cx="1180.8" cy="209.21" r="34.68"/>
  <circle class="st1" cx="1222.89" cy="264.35" r="34.68"/>
  <circle class="st1" cx="1264.99" cy="319.48" r="34.68"/>
  <circle class="st1" cx="99.53" cy="242.34" r="78.78"/>
  <path class="st0" d="M303.97-123.15c1.66-7.24,11.43-8.5,14.88-1.92l40.71,77.62c1.08,2.07,3.02,3.56,5.29,4.08l85.42,19.62c7.24,1.66,8.5,11.43,1.92,14.88l-77.62,40.71c-2.07,1.08-3.56,3.02-4.08,5.29l-19.62,85.42c-1.66,7.24-11.43,8.5-14.88,1.92l-40.71-77.62c-1.08-2.07-3.02-3.56-5.29-4.08l-85.42-19.62c-7.24-1.66-8.5-11.43-1.93-14.88l77.62-40.71c2.07-1.08,3.56-3.02,4.08-5.29l19.62-85.42Z"/>
  <path class="st2" d="M1512.93-318.39c-164.97,0-298.71,133.73-298.71,298.71s133.74,298.71,298.71,298.71,298.71-133.74,298.71-298.71-133.73-298.71-298.71-298.71ZM1512.93,141.08c-88.78,0-160.76-71.98-160.76-160.76s71.98-160.76,160.76-160.76,160.76,71.97,160.76,160.76-71.97,160.76-160.76,160.76Z"/>
</svg>