<?xml version="1.0" encoding="UTF-8"?>
<svg id="Layer_1" xmlns="http://www.w3.org/2000/svg" version="1.1" viewBox="0 0 1074 369">
  <!-- Generator: Adobe Illustrator 29.6.0, SVG Export Plug-In . SVG Version: 2.1.1 Build 207)  -->
  <defs>
    <style>
      .st0 {
        fill: #d4af2a;
      }

      .st1 {
        fill: #e73c31;
      }

      .st2 {
        fill: #4193f3;
      }
    </style>
  </defs>
  <path class="st0" d="M670.22-27.71c3.57-5.02,11.23-4.3,13.8,1.3l47.3,103.29c2.56,5.6-1.9,11.87-8.03,11.3l-113.1-10.68c-6.13-.58-9.34-7.58-5.77-12.6l65.8-92.61h0Z"/>
  <path class="st2" d="M425.66,36.01c.44-6.14,7.36-9.51,12.46-6.06l22.73,15.37c5.1,3.45,4.55,11.13-.98,13.82l-24.68,12c-5.54,2.69-11.92-1.62-11.48-7.76l1.95-27.37h0Z"/>
  <circle class="st1" cx="844.24" cy="159.64" r="34.68"/>
  <circle class="st1" cx="886.34" cy="214.77" r="34.68"/>
  <circle class="st1" cx="928.43" cy="269.91" r="34.68"/>
  <circle class="st1" cx="970.53" cy="325.04" r="34.68"/>
  <circle class="st1" cx="45.18" cy="279.2" r="55.62"/>
  <path class="st0" d="M258.56-142.53c1.66-7.24,11.43-8.5,14.88-1.92l40.71,77.62c1.08,2.07,3.02,3.56,5.29,4.08l85.42,19.62c7.24,1.66,8.5,11.43,1.92,14.88l-77.62,40.71c-2.07,1.08-3.56,3.02-4.08,5.29l-19.62,85.42c-1.66,7.24-11.43,8.5-14.88,1.92l-40.71-77.62c-1.08-2.07-3.02-3.56-5.29-4.08L159.16,3.77c-7.24-1.66-8.5-11.43-1.93-14.88l77.62-40.71c2.07-1.08,3.56-3.02,4.08-5.29l19.62-85.42h0Z"/>
  <path class="st2" d="M1203.93-347.97c-164.97,0-298.71,133.73-298.71,298.71s133.74,298.71,298.71,298.71,298.71-133.74,298.71-298.71-133.73-298.71-298.71-298.71ZM1203.93,111.5c-88.78,0-160.76-71.98-160.76-160.76s71.98-160.76,160.76-160.76,160.76,71.97,160.76,160.76-71.97,160.76-160.76,160.76Z"/>
  <path class="st2" d="M145.02,218.43L-89.19,60.03c-8.25-5.58-9.68-17.07-3.2-24.62C-40.5-24.87,49.46-38.02,116.92,7.61c67.48,45.64,88.76,134.03,52.13,204.61-4.58,8.84-15.79,11.77-24.03,6.2h0Z"/>
</svg>