<?xml version="1.0" encoding="UTF-8"?>
<svg id="Layer_1" xmlns="http://www.w3.org/2000/svg" version="1.1" viewBox="0 0 1440 369">
  <!-- Generator: Adobe Illustrator 29.6.0, SVG Export Plug-In . SVG Version: 2.1.1 Build 207)  -->
  <defs>
    <style>
      .st0 {
        fill: #d4af2a;
      }

      .st1 {
        fill: #e73c31;
      }

      .st2 {
        fill: #4193f3;
      }
    </style>
  </defs>
  <path class="st0" d="M989.22-19.55c3.57-5.02,11.23-4.3,13.8,1.3l47.3,103.29c2.56,5.6-1.9,11.87-8.03,11.3l-113.1-10.68c-6.13-.58-9.34-7.58-5.77-12.6l65.8-92.61h0Z"/>
  <path class="st2" d="M523.66,31.38c.44-6.14,7.36-9.51,12.46-6.06l22.73,15.37c5.1,3.45,4.55,11.13-.98,13.82l-24.68,12c-5.54,2.69-11.92-1.62-11.48-7.76l1.95-27.37h0Z"/>
  <circle class="st1" cx="1161.43" cy="165.95" r="25.93"/>
  <circle class="st1" cx="1192.91" cy="207.17" r="25.93"/>
  <circle class="st1" cx="1224.39" cy="248.4" r="25.93"/>
  <circle class="st1" cx="1255.87" cy="289.63" r="25.93"/>
  <circle class="st1" cx="127.87" cy="273.74" r="78.78"/>
  <path class="st0" d="M303.97-123.15c1.66-7.24,11.43-8.5,14.88-1.92l40.71,77.62c1.08,2.07,3.02,3.56,5.29,4.08l85.42,19.62c7.24,1.66,8.5,11.43,1.92,14.88l-77.62,40.71c-2.07,1.08-3.56,3.02-4.08,5.29l-19.62,85.42c-1.66,7.24-11.43,8.5-14.88,1.92l-40.71-77.62c-1.08-2.07-3.02-3.56-5.29-4.08l-85.42-19.62c-7.24-1.66-8.5-11.43-1.93-14.88l77.62-40.71c2.07-1.08,3.56-3.02,4.08-5.29l19.62-85.42h0Z"/>
  <path class="st2" d="M1512.93-318.39c-164.97,0-298.71,133.73-298.71,298.71s133.74,298.71,298.71,298.71,298.71-133.74,298.71-298.71-133.73-298.71-298.71-298.71ZM1512.93,141.08c-88.78,0-160.76-71.98-160.76-160.76s71.98-160.76,160.76-160.76,160.76,71.97,160.76,160.76-71.97,160.76-160.76,160.76Z"/>
  <path class="st2" d="M157.47,174.96L-66.46,48.92c-7.88-4.44-10.05-14.74-4.73-22.06C-28.68-31.59,51.82-50.21,116.33-13.9c64.52,36.31,90.37,114.79,62.45,181.45-3.49,8.34-13.43,11.84-21.31,7.4Z"/>
</svg>