<?xml version="1.0" encoding="UTF-8"?>
<svg id="Layer_1" xmlns="http://www.w3.org/2000/svg" version="1.1" viewBox="0 0 1128 399.9">
  <!-- Generator: Adobe Illustrator 29.6.0, SVG Export Plug-In . SVG Version: 2.1.1 Build 207)  -->
  <defs>
    <style>
      .st0 {
        fill: #d4af2a;
      }

      .st1 {
        fill: #e73c31;
      }

      .st2 {
        fill: #4193f3;
      }
    </style>
  </defs>
  <path class="st0" d="M833.22-19.55c3.57-5.02,11.23-4.3,13.8,1.3l47.3,103.29c2.56,5.6-1.9,11.87-8.03,11.3l-113.1-10.68c-6.13-.58-9.34-7.58-5.77-12.6l65.8-92.61h0Z"/>
  <circle class="st1" cx="912.7" cy="195.43" r="34.68"/>
  <circle class="st1" cx="954.8" cy="250.56" r="34.68"/>
  <circle class="st1" cx="996.96" cy="305.75" r="34.68"/>
  <circle class="st1" cx="1039.07" cy="360.89" r="34.68" transform="translate(237.09 1113.72) rotate(-62.34)"/>
  <circle class="st1" cx="66.59" cy="305.7" r="47.74" transform="translate(-242.45 354.54) rotate(-86.69)"/>
  <path class="st0" d="M233.42-128.24c1.94-8.45,13.34-9.92,17.37-2.24l47.52,90.6c1.26,2.42,3.52,4.16,6.17,4.76l99.7,22.9c8.45,1.94,9.92,13.34,2.24,17.37l-90.6,47.52c-2.42,1.26-4.16,3.52-4.76,6.17l-22.9,99.7c-1.94,8.45-13.34,9.92-17.37,2.24l-47.52-90.6c-1.26-2.42-3.52-4.16-6.17-4.76l-99.7-22.9c-8.45-1.94-9.92-13.34-2.25-17.37l90.6-47.52c2.42-1.26,4.16-3.52,4.76-6.17l22.9-99.7h.01Z"/>
  <path class="st2" d="M1257.82-288.75c-164.97,0-298.71,133.73-298.71,298.71s133.74,298.71,298.71,298.71S1556.53,174.93,1556.53,9.96s-133.73-298.71-298.71-298.71h0ZM1257.82,170.72c-88.78,0-160.76-71.98-160.76-160.76s71.98-160.76,160.76-160.76,160.76,71.97,160.76,160.76-71.97,160.76-160.76,160.76Z"/>
  <path class="st2" d="M456.71,45.7l-57.52,7.63c-7.42.99-11,9.64-6.43,15.57l35.37,45.99c4.56,5.94,13.84,4.7,16.7-2.22l22.15-53.63c2.86-6.92-2.85-14.34-10.27-13.36v.02Z"/>
  <path class="st2" d="M141.33,248.97l-225.72-113.74c-7.95-4-10.54-14.03-5.64-21.46C-50.9,54.42,27.35,32.49,92.38,65.26c65.04,32.77,93.98,108.71,69.55,175.48-3.06,8.36-12.66,12.24-20.6,8.24h0Z"/>
</svg>