<?xml version="1.0" encoding="UTF-8"?>
<svg id="Layer_1" xmlns="http://www.w3.org/2000/svg" version="1.1" viewBox="0 0 834 1091">
  <!-- Generator: Adobe Illustrator 29.5.1, SVG Export Plug-In . SVG Version: 2.1.0 Build 141)  -->
  <defs>
    <style>
      .st0 {
        fill: #d4af2a;
      }

      .st1 {
        fill: #e73c31;
      }

      .st2 {
        fill: #4193f3;
      }
    </style>
  </defs>
  <path class="st0" d="M216.27,866.99L6.46,968.97c-6.98,3.39-15.23,1.24-19.73-4.73-53.73-125.4-3.18-271.52,116.54-336.91,7.23-1.89,15.01,1.51,18.41,8.49l101.98,209.79c3.86,7.94.55,17.52-7.39,21.38Z"/>
  <path class="st1" d="M687.07-1.51c-5.58-10.98,2.81-23.88,15.11-23.23l265.34,14.1c12.3.65,19.28,14.38,12.56,24.7l-144.89,222.73c-6.72,10.32-22.09,9.51-27.67-1.47L687.07-1.51Z"/>
  <circle class="st1" cx="341.19" cy="836.69" r="34.68"/>
  <circle class="st1" cx="314.12" cy="900.56" r="34.68"/>
  <circle class="st1" cx="287.03" cy="964.41" r="34.68"/>
  <circle class="st1" cx="259.95" cy="1028.27" r="34.68"/>
  <path class="st2" d="M525.72-57.29c3.28-6.66,13.07-5.66,14.93,1.54l21.85,84.87c.58,2.26,2.12,4.16,4.22,5.19l78.65,38.66c6.66,3.28,5.66,13.08-1.54,14.93l-84.88,21.85c-2.26.58-4.15,2.12-5.19,4.22l-38.67,78.65c-3.28,6.66-13.08,5.66-14.93-1.53l-21.85-84.87c-.58-2.26-2.12-4.15-4.22-5.18l-78.65-38.66c-6.67-3.28-5.66-13.08,1.53-14.93l84.88-21.85c2.26-.58,4.16-2.12,5.19-4.22l38.67-78.65v-.02Z"/>
  <path class="st1" d="M-67.36-221.34c-215.55,0-390.29,174.72-390.29,390.26s174.74,390.25,390.29,390.25,390.28-174.72,390.28-390.25S148.18-221.34-67.36-221.34ZM-67.36,378.94c-116.01,0-210.05-94.03-210.05-210.02S-183.37-41.11-67.36-41.11,142.68,52.92,142.68,168.92s-94.04,210.02-210.04,210.02h0Z"/>
  <path class="st2" d="M1113.11,684.7c9.05-1.38,17.38,5.11,18.34,14.22,19.65,187.59-111.56,359.33-299.98,387.99-188.42,28.66-364.75-96.31-401.76-281.26-1.8-8.98,4.23-17.65,13.28-19.03l670.12-101.92h0Z"/>
  <circle class="st0" cx="786.92" cy="463.5" r="57.08"/>
</svg>